<svg width="205" height="205" viewBox="0 0 205 205" fill="none" xmlns="http://www.w3.org/2000/svg">
<path d="M156.765 0H48.2353C21.5957 0 0 21.5957 0 48.2353V156.765C0 183.404 21.5957 205 48.2353 205H156.765C183.404 205 205 183.404 205 156.765V48.2353C205 21.5957 183.404 0 156.765 0Z" fill="#5F46F8"/>
<path d="M109.735 58.7867C109.735 64.614 104.697 69.338 98.481 69.338C92.266 69.338 87.2271 64.614 87.2271 58.7867C87.2271 52.9597 92.266 48.2354 98.481 48.2354C104.697 48.2354 109.735 52.9597 109.735 58.7867Z" fill="url(#paint0_linear_112_14)"/>
<path d="M66.323 93.332H88.009L88.007 126.499C88.007 130.547 88.455 134.259 89.354 137.633C90.252 141.006 91.738 143.888 93.813 146.274C95.891 148.664 98.611 150.505 101.979 151.803C105.347 153.101 109.442 153.75 114.267 153.75C118.982 153.75 123.245 153.101 127.061 151.803C130.877 150.505 134.749 148.351 138.676 145.342L130.259 133.974C128.576 135.114 126.808 136.101 124.956 136.932C123.106 137.762 120.609 138.178 117.467 138.178C114.099 138.178 111.658 137.062 110.145 134.829C108.629 132.598 107.871 129.406 107.871 125.252V93.331H129.08V78.383H66.323V93.332Z" fill="url(#paint1_linear_112_14)"/>
<defs>
<linearGradient id="paint0_linear_112_14" x1="128.721" y1="51.3614" x2="70.398" y2="148.547" gradientUnits="userSpaceOnUse">
<stop stop-color="#ABFFFA"/>
<stop offset="1" stop-color="#A09EFF"/>
</linearGradient>
<linearGradient id="paint1_linear_112_14" x1="128.721" y1="51.3614" x2="70.398" y2="148.547" gradientUnits="userSpaceOnUse">
<stop stop-color="#ABFFFA"/>
<stop offset="1" stop-color="#A09EFF"/>
</linearGradient>
</defs>
</svg>
